<svg xmlns="http://www.w3.org/2000/svg" viewBox="0 0 27.62 35.76"><defs><style>.cls-1{fill:none;stroke:#fff;stroke-linecap:round;stroke-linejoin:round;stroke-width:0.5px;}</style></defs><title>icon-sacola</title><g id="Camada_2" data-name="Camada 2"><g id="Layer_1" data-name="Layer 1"><path class="cls-1" d="M23.79,7.7h-20A1.27,1.27,0,0,0,2.57,8.85L.26,34.12a1.27,1.27,0,0,0,1.27,1.39H26.1a1.27,1.27,0,0,0,1.27-1.39L25.05,8.85A1.27,1.27,0,0,0,23.79,7.7Z"/><path class="cls-1" d="M2,15.33l.59-6.48A1.27,1.27,0,0,1,3.84,7.7h20a1.27,1.27,0,0,1,1.27,1.16l.59,6.48Z"/><path class="cls-1" d="M19.22,11.52V2.8A2.55,2.55,0,0,0,16.67.25H10.95A2.55,2.55,0,0,0,8.4,2.8v8.72"/><path class="cls-1" d="M18.52,21.39a3,3,0,0,0-4,.28l-.7.7h0l-.7-.7a3,3,0,0,0-4-.28,2.91,2.91,0,0,0-.21,4.31l.8.8,3.22,3.22a1.27,1.27,0,0,0,1.8,0l3.22-3.22.8-.8A2.91,2.91,0,0,0,18.52,21.39Z"/></g></g></svg>